<svg width="65" height="66" viewBox="0 0 65 66" fill="none" xmlns="http://www.w3.org/2000/svg">
<rect y="0.817139" width="65" height="65" rx="12.35" fill="#AE47FF"/>
<path d="M25.9864 11.8171H16.5L31.0605 26.2734H26.207C33.4872 31.6111 48.1359 42.331 48.4889 42.5089C48.8419 42.6868 40.6939 31.6111 36.5758 26.051H40.988L25.9864 11.8171Z" fill="white"/>
<path d="M41.4293 13.5964H30.8398L36.1346 18.7117H46.9446L41.4293 13.5964Z" fill="white"/>
<path d="M31.2811 32.5007H20.6916L27.7513 37.616H38.5613L31.2811 32.5007Z" fill="white"/>
<path d="M9.87576 54.816C8.91509 54.816 8.12309 54.7683 7.49976 54.673L7.65376 53.441C8.54842 53.551 9.33676 53.606 10.0188 53.606H10.1618C10.6238 53.606 10.9868 53.562 11.2508 53.474C11.5221 53.386 11.7164 53.2577 11.8338 53.089C11.9511 52.9203 12.0244 52.704 12.0538 52.44C12.0684 52.308 12.0758 52.2163 12.0758 52.165C12.0758 51.9083 12.0171 51.714 11.8998 51.582C11.7824 51.45 11.6064 51.3583 11.3718 51.307C11.1444 51.2483 10.7998 51.1897 10.3378 51.131C9.80976 51.0723 9.39176 50.9807 9.08376 50.856C8.77576 50.7313 8.54476 50.5517 8.39076 50.317C8.24409 50.075 8.17076 49.7523 8.17076 49.349C8.17076 49.1877 8.18176 49.008 8.20376 48.81C8.29909 47.9813 8.57776 47.391 9.03976 47.039C9.50176 46.687 10.2094 46.511 11.1628 46.511H11.9328C12.4901 46.511 13.1061 46.5183 13.7808 46.533L13.6378 47.743C13.2491 47.743 12.9521 47.7393 12.7468 47.732L11.7898 47.721H11.0198C10.4844 47.721 10.0921 47.8163 9.84276 48.007C9.60076 48.1903 9.47976 48.5423 9.47976 49.063C9.47976 49.2903 9.52376 49.4627 9.61176 49.58C9.69976 49.69 9.82076 49.767 9.97476 49.811C10.1288 49.855 10.3781 49.9027 10.7228 49.954C10.7888 49.9613 10.9208 49.9797 11.1188 50.009C11.6614 50.0897 12.0941 50.196 12.4168 50.328C12.7394 50.46 12.9814 50.6507 13.1428 50.9C13.3041 51.142 13.3848 51.472 13.3848 51.89C13.3848 52.044 13.3738 52.209 13.3518 52.385C13.2784 52.9937 13.1171 53.474 12.8678 53.826C12.6258 54.178 12.2738 54.431 11.8118 54.585C11.3498 54.739 10.7521 54.816 10.0188 54.816H9.87576Z" fill="white"/>
<path d="M18.9322 46.533H24.2562L24.1132 47.721H20.0872L19.8012 50.02H23.3212L23.1782 51.197H19.6582L19.3612 53.595H23.4862L23.3432 54.794H17.9202L18.9322 46.533Z" fill="white"/>
<path d="M29.4075 46.533H30.7055L29.6935 54.794H28.3955L29.4075 46.533Z" fill="white"/>
<path d="M35.8565 46.533H37.1545L36.2855 53.584H40.5755L40.4325 54.794H34.8445L35.8565 46.533Z" fill="white"/>
<path d="M45.7268 46.533H51.0508L50.9078 47.721H46.8818L46.5958 50.02H50.1158L49.9728 51.197H46.4528L46.1558 53.595H50.2808L50.1378 54.794H44.7148L45.7268 46.533Z" fill="white"/>
<path d="M56.2019 46.533H57.4999L56.4879 54.794H55.1899L56.2019 46.533Z" fill="white"/>
</svg>
